<svg width="200" height="200" viewBox="0 0 200 200" fill="none" xmlns="http://www.w3.org/2000/svg">
<rect width="200" height="200" rx="20" fill="white"/>
<path d="M126.188 112.912H141.739L149.557 122.969L157.248 131.928L171.743 150.099H154.67L144.697 137.844L139.584 130.576L126.188 112.912ZM173.053 99.7273C173.053 109.165 171.264 117.194 167.686 123.815C164.136 130.435 159.29 135.492 153.149 138.985C147.035 142.451 140.161 144.183 132.527 144.183C124.836 144.183 117.933 142.437 111.82 138.943C105.707 135.45 100.875 130.393 97.3253 123.772C93.7756 117.152 92.0007 109.137 92.0007 99.7273C92.0007 90.2895 93.7756 82.2604 97.3253 75.6399C100.875 69.0194 105.707 63.9766 111.82 60.5114C117.933 57.018 124.836 55.2713 132.527 55.2713C140.161 55.2713 147.035 57.018 153.149 60.5114C159.29 63.9766 164.136 69.0194 167.686 75.6399C171.264 82.2604 173.053 90.2895 173.053 99.7273ZM154.501 99.7273C154.501 93.6139 153.585 88.4583 151.754 84.2607C149.951 80.063 147.402 76.8795 144.105 74.7102C140.809 72.541 136.95 71.4563 132.527 71.4563C128.104 71.4563 124.244 72.541 120.948 74.7102C117.652 76.8795 115.088 80.063 113.257 84.2607C111.454 88.4583 110.552 93.6139 110.552 99.7273C110.552 105.841 111.454 110.996 113.257 115.194C115.088 119.392 117.652 122.575 120.948 124.744C124.244 126.914 128.104 127.998 132.527 127.998C136.95 127.998 140.809 126.914 144.105 124.744C147.402 122.575 149.951 119.392 151.754 115.194C153.585 110.996 154.501 105.841 154.501 99.7273Z" fill="#D07000"/>
<path d="M35.522 143V56.4545H69.6669C76.2029 56.4545 81.781 57.6237 86.4013 59.962C91.0497 62.2721 94.5853 65.5542 97.0082 69.8082C99.4592 74.0341 100.685 79.0065 100.685 84.7255C100.685 90.4727 99.4451 95.4169 96.9659 99.5582C94.4867 103.671 90.8948 106.827 86.19 109.024C81.5134 111.222 75.8507 112.32 69.2021 112.32H46.3402V97.6143H66.244C69.7373 97.6143 72.6391 97.1354 74.9492 96.1776C77.2594 95.2197 78.9779 93.7829 80.1048 91.8672C81.2598 89.9515 81.8374 87.5709 81.8374 84.7255C81.8374 81.8519 81.2598 79.4291 80.1048 77.457C78.9779 75.485 77.2453 73.9918 74.907 72.9776C72.5968 71.9353 69.681 71.4141 66.1594 71.4141H53.82V143H35.522ZM82.2599 103.615L103.77 143H83.57L62.5252 103.615H82.2599Z" fill="black"/>
</svg>
