<svg width="191" height="59" viewBox="0 0 191 59" fill="none" xmlns="http://www.w3.org/2000/svg">
<path d="M21.72 45H16.44V36.6C16.44 35.96 16.2667 35.44 15.92 35.04C15.6 34.64 15.0533 34.44 14.28 34.44H8.2V45H2.92V17H13.64C15.08 17 16.3467 17.2 17.44 17.6C18.5333 18 19.44 18.56 20.16 19.28C20.9067 19.9733 21.4667 20.7867 21.84 21.72C22.24 22.6533 22.44 23.6533 22.44 24.72V25.68C22.44 26.8267 22.1333 27.9067 21.52 28.92C20.9067 29.9067 19.96 30.6667 18.68 31.2V31.92C19.6133 32.0267 20.3467 32.3867 20.88 33C21.44 33.6133 21.72 34.3867 21.72 35.32V45ZM8.2 29.4H13.24C14.52 29.4 15.4933 29.1067 16.16 28.52C16.8267 27.9067 17.16 27.0533 17.16 25.96V25.48C17.16 24.5467 16.8267 23.7467 16.16 23.08C15.4933 22.3867 14.52 22.04 13.24 22.04H8.2V29.4Z" fill="#FF7A00"/>
<path d="M25 31.72H37.48V36.28H25V31.72ZM60.8522 42.12H60.1322C59.9189 42.5733 59.6522 43.0133 59.3322 43.44C59.0389 43.84 58.6389 44.2 58.1322 44.52C57.6522 44.84 57.0655 45.0933 56.3722 45.28C55.7055 45.4667 54.8922 45.56 53.9322 45.56C52.7055 45.56 51.5589 45.3467 50.4922 44.92C49.4522 44.4667 48.5322 43.8133 47.7322 42.96C46.9589 42.08 46.3455 41.0133 45.8922 39.76C45.4655 38.5067 45.2522 37.0667 45.2522 35.44V34.72C45.2522 33.12 45.4789 31.6933 45.9322 30.44C46.4122 29.1867 47.0522 28.1333 47.8522 27.28C48.6789 26.4 49.6255 25.7333 50.6922 25.28C51.7855 24.8267 52.9322 24.6 54.1322 24.6C55.7322 24.6 56.9989 24.9067 57.9322 25.52C58.8655 26.1067 59.5989 26.9467 60.1322 28.04H60.8522V17H65.8922V45H60.8522V42.12ZM55.5722 40.76C57.1455 40.76 58.4122 40.2667 59.3722 39.28C60.3589 38.2667 60.8522 36.9467 60.8522 35.32V34.84C60.8522 33.2133 60.3589 31.9067 59.3722 30.92C58.4122 29.9067 57.1455 29.4 55.5722 29.4C53.9989 29.4 52.7189 29.8933 51.7322 30.88C50.7722 31.84 50.2922 33.16 50.2922 34.84V35.32C50.2922 37 50.7722 38.3333 51.7322 39.32C52.7189 40.28 53.9989 40.76 55.5722 40.76ZM90.5444 35.32C90.5444 36.9733 90.2644 38.44 89.7044 39.72C89.1444 40.9733 88.3844 42.04 87.4244 42.92C86.4644 43.7733 85.3577 44.4267 84.1044 44.88C82.8777 45.3333 81.5844 45.56 80.2244 45.56C78.8644 45.56 77.5577 45.3333 76.3044 44.88C75.0777 44.4267 73.9844 43.7733 73.0244 42.92C72.0644 42.04 71.3044 40.9733 70.7444 39.72C70.1844 38.44 69.9044 36.9733 69.9044 35.32V34.84C69.9044 33.2133 70.1844 31.7733 70.7444 30.52C71.3044 29.24 72.0644 28.16 73.0244 27.28C73.9844 26.4 75.0777 25.7333 76.3044 25.28C77.5577 24.8267 78.8644 24.6 80.2244 24.6C81.5844 24.6 82.8777 24.8267 84.1044 25.28C85.3577 25.7333 86.4644 26.4 87.4244 27.28C88.3844 28.16 89.1444 29.24 89.7044 30.52C90.2644 31.7733 90.5444 33.2133 90.5444 34.84V35.32ZM80.2244 40.76C80.9444 40.76 81.6244 40.64 82.2644 40.4C82.9044 40.16 83.4644 39.8133 83.9444 39.36C84.4244 38.9067 84.7977 38.36 85.0644 37.72C85.3577 37.0533 85.5044 36.3067 85.5044 35.48V34.68C85.5044 33.8533 85.3577 33.12 85.0644 32.48C84.7977 31.8133 84.4244 31.2533 83.9444 30.8C83.4644 30.3467 82.9044 30 82.2644 29.76C81.6244 29.52 80.9444 29.4 80.2244 29.4C79.5044 29.4 78.8244 29.52 78.1844 29.76C77.5444 30 76.9844 30.3467 76.5044 30.8C76.0244 31.2533 75.6377 31.8133 75.3444 32.48C75.0777 33.12 74.9444 33.8533 74.9444 34.68V35.48C74.9444 36.3067 75.0777 37.0533 75.3444 37.72C75.6377 38.36 76.0244 38.9067 76.5044 39.36C76.9844 39.8133 77.5444 40.16 78.1844 40.4C78.8244 40.64 79.5044 40.76 80.2244 40.76ZM109.837 42.12H109.117C108.903 42.5733 108.637 43.0133 108.317 43.44C108.023 43.84 107.623 44.2 107.117 44.52C106.637 44.84 106.05 45.0933 105.357 45.28C104.69 45.4667 103.877 45.56 102.917 45.56C101.69 45.56 100.543 45.3467 99.4766 44.92C98.4366 44.4667 97.5166 43.8133 96.7166 42.96C95.9432 42.08 95.3299 41.0133 94.8766 39.76C94.4499 38.5067 94.2366 37.0667 94.2366 35.44V34.72C94.2366 33.12 94.4632 31.6933 94.9166 30.44C95.3966 29.1867 96.0366 28.1333 96.8366 27.28C97.6632 26.4 98.6099 25.7333 99.6766 25.28C100.77 24.8267 101.917 24.6 103.117 24.6C104.717 24.6 105.983 24.9067 106.917 25.52C107.85 26.1067 108.583 26.9467 109.117 28.04H109.837V17H114.877V45H109.837V42.12ZM104.557 40.76C106.13 40.76 107.397 40.2667 108.357 39.28C109.343 38.2667 109.837 36.9467 109.837 35.32V34.84C109.837 33.2133 109.343 31.9067 108.357 30.92C107.397 29.9067 106.13 29.4 104.557 29.4C102.983 29.4 101.703 29.8933 100.717 30.88C99.7566 31.84 99.2766 33.16 99.2766 34.84V35.32C99.2766 37 99.7566 38.3333 100.717 39.32C101.703 40.28 102.983 40.76 104.557 40.76ZM134.249 42.12H133.529C133.315 42.5733 133.049 43.0133 132.729 43.44C132.435 43.84 132.035 44.2 131.529 44.52C131.049 44.84 130.462 45.0933 129.769 45.28C129.102 45.4667 128.289 45.56 127.329 45.56C126.102 45.56 124.955 45.3467 123.889 44.92C122.849 44.4667 121.929 43.8133 121.129 42.96C120.355 42.08 119.742 41.0133 119.289 39.76C118.862 38.5067 118.649 37.0667 118.649 35.44V34.72C118.649 33.12 118.875 31.6933 119.329 30.44C119.809 29.1867 120.449 28.1333 121.249 27.28C122.075 26.4 123.022 25.7333 124.089 25.28C125.182 24.8267 126.329 24.6 127.529 24.6C129.129 24.6 130.395 24.9067 131.329 25.52C132.262 26.1067 132.995 26.9467 133.529 28.04H134.249V25.16H139.289V49.88C139.289 50.7867 138.995 51.5333 138.409 52.12C137.849 52.7067 137.115 53 136.209 53H122.849V48.2H133.169C133.889 48.2 134.249 47.8 134.249 47V42.12ZM128.969 40.76C130.542 40.76 131.809 40.2667 132.769 39.28C133.755 38.2667 134.249 36.9467 134.249 35.32V34.84C134.249 33.2133 133.755 31.9067 132.769 30.92C131.809 29.9067 130.542 29.4 128.969 29.4C127.395 29.4 126.115 29.8933 125.129 30.88C124.169 31.84 123.689 33.16 123.689 34.84V35.32C123.689 37 124.169 38.3333 125.129 39.32C126.115 40.28 127.395 40.76 128.969 40.76ZM149.021 36.72C149.048 37.3067 149.181 37.8533 149.421 38.36C149.688 38.84 150.034 39.2667 150.461 39.64C150.914 39.9867 151.421 40.2667 151.981 40.48C152.568 40.6667 153.181 40.76 153.821 40.76C155.074 40.76 156.034 40.5467 156.701 40.12C157.368 39.6667 157.848 39.1333 158.141 38.52L162.461 40.92C162.221 41.4267 161.888 41.96 161.461 42.52C161.034 43.0533 160.474 43.5467 159.781 44C159.114 44.4533 158.288 44.8267 157.301 45.12C156.341 45.4133 155.208 45.56 153.901 45.56C152.408 45.56 151.048 45.32 149.821 44.84C148.594 44.36 147.528 43.6667 146.621 42.76C145.741 41.8533 145.048 40.7467 144.541 39.44C144.061 38.1333 143.821 36.6533 143.821 35V34.76C143.821 33.24 144.074 31.8533 144.581 30.6C145.114 29.3467 145.834 28.28 146.741 27.4C147.648 26.52 148.701 25.84 149.901 25.36C151.128 24.8533 152.434 24.6 153.821 24.6C155.528 24.6 156.994 24.9067 158.221 25.52C159.448 26.1067 160.461 26.8667 161.261 27.8C162.061 28.7067 162.648 29.72 163.021 30.84C163.394 31.9333 163.581 33 163.581 34.04V36.72H149.021ZM153.781 29.16C152.501 29.16 151.461 29.4933 150.661 30.16C149.861 30.8 149.341 31.5467 149.101 32.4H158.461C158.301 31.4667 157.794 30.6933 156.941 30.08C156.114 29.4667 155.061 29.16 153.781 29.16ZM175.673 45.32C173.193 44.8667 171.273 43.6933 169.913 41.8C168.553 39.9067 167.873 37.3467 167.873 34.12V27.88C167.873 24.2533 168.78 21.44 170.593 19.44C172.433 17.44 174.966 16.44 178.193 16.44C181.42 16.44 183.94 17.44 185.753 19.44C187.593 21.44 188.513 24.2533 188.513 27.88V34.12C188.513 37.3467 187.82 39.9067 186.433 41.8C185.073 43.6933 183.166 44.8667 180.713 45.32V46.04C180.713 46.7867 181.046 47.16 181.713 47.16H184.193V51.96H179.473C178.38 51.96 177.473 51.5867 176.753 50.84C176.033 50.12 175.673 49.2133 175.673 48.12V45.32ZM178.193 40.76C179.153 40.76 179.953 40.6 180.593 40.28C181.233 39.96 181.753 39.52 182.153 38.96C182.553 38.4 182.833 37.7333 182.993 36.96C183.153 36.16 183.233 35.2933 183.233 34.36V27.64C183.233 26.76 183.14 25.9333 182.953 25.16C182.766 24.3867 182.473 23.7067 182.073 23.12C181.673 22.5333 181.153 22.08 180.513 21.76C179.873 21.4133 179.1 21.24 178.193 21.24C177.286 21.24 176.513 21.4133 175.873 21.76C175.233 22.08 174.713 22.5333 174.313 23.12C173.913 23.7067 173.62 24.3867 173.433 25.16C173.246 25.9333 173.153 26.76 173.153 27.64V34.36C173.153 35.2933 173.233 36.16 173.393 36.96C173.553 37.7333 173.833 38.4 174.233 38.96C174.633 39.52 175.153 39.96 175.793 40.28C176.433 40.6 177.233 40.76 178.193 40.76Z" fill="black"/>
</svg>
